# xmcd CD database file generated by Grip 3.3.1
# 
# Track frame offsets:
#       150
#       21974
#       37627
#       55866
#       67996
#       83797
#       99745
#       117157
#       132790
#       148442
#       159501
#       174478
#       188036
# 
# Disc length: 2728 seconds
# 
# Revision: 3
# Processed by: cddbd v1.5.2PL0 Copyright (c) Steve Scherf et al.
# Submitted via: Grip 3.3.1
# 
DISCID=a90aa60d
DTITLE=Soul Embraced - Dead Alive
DYEAR=2008
DGENRE=Metal
TTITLE0=To End It All
TTITLE1=Breaking Point
TTITLE2=Curtain of Deceit
TTITLE3=The Devil's Reflections
TTITLE4=Everything Reminds Me Of You
TTITLE5=La Fin Absolue du Monde
TTITLE6=Crawl
TTITLE7=Into Darkness
TTITLE8=Judas I've Become
TTITLE9=Bloodstained Nevada
TTITLE10=Kill This
TTITLE11=In Memory
TTITLE12=Dead Alive
EXTD=
EXTT0=
EXTT1=
EXTT2=
EXTT3=
EXTT4=
EXTT5=
EXTT6=
EXTT7=
EXTT8=
EXTT9=
EXTT10=
EXTT11=
EXTT12=
PLAYORDER=
